<?xml version="1.0" standalone="no"?>
<!DOCTYPE svg PUBLIC "-//W3C//DTD SVG 20010904//EN"
 "http://www.w3.org/TR/2001/REC-SVG-20010904/DTD/svg10.dtd">
<svg version="1.0" xmlns="http://www.w3.org/2000/svg"
 width="744.000000pt" height="210.000000pt" viewBox="0 0 744.000000 210.000000"
 preserveAspectRatio="xMidYMid meet">

<g transform="translate(0.000000,210.000000) scale(0.100000,-0.100000)"
fill="#000000" stroke="none">
<path d="M0 1050 l0 -1050 3720 0 3720 0 0 1050 0 1050 -196 0 c-127 0 -193
-3 -189 -10 3 -6 17 -10 31 -10 39 0 145 -53 196 -99 43 -38 108 -134 108
-158 0 -10 -168 -79 -174 -72 -2 2 -9 15 -15 27 -22 41 -83 103 -122 123 -52
26 -165 26 -217 0 -46 -23 -67 -46 -87 -94 -45 -109 18 -182 231 -267 143 -57
187 -79 257 -131 103 -77 150 -185 127 -296 -18 -86 -45 -136 -106 -193 -63
-60 -131 -93 -231 -110 -130 -23 -286 21 -383 107 -49 44 -116 146 -106 162 6
9 167 74 170 69 16 -34 84 -119 109 -136 64 -43 191 -47 264 -9 61 32 93 99
78 166 -14 64 -126 146 -285 209 -131 52 -190 84 -242 131 -72 64 -98 124 -98
227 0 70 4 89 31 142 49 98 158 183 256 199 105 17 -4 23 -432 23 -266 0 -474
-4 -471 -9 3 -4 26 -11 52 -14 73 -8 185 -69 256 -140 77 -77 130 -166 165
-277 23 -73 27 -103 27 -210 0 -150 -12 -205 -70 -327 -87 -183 -227 -283
-435 -314 -166 -24 -337 34 -452 155 -25 26 -41 36 -48 29 -6 -6 -8 -162 -7
-425 l3 -416 -90 -4 c-49 -2 -96 -2 -103 0 -10 3 -12 199 -10 956 l3 951 100
0 100 0 -3 -70 c-4 -102 5 -108 68 -41 59 63 163 120 243 135 26 5 51 11 54
15 4 3 -863 6 -1926 6 -1286 0 -1930 -3 -1926 -10 3 -5 16 -10 28 -10 65 0
193 -69 267 -144 24 -26 48 -46 52 -46 4 0 8 38 8 85 l0 86 98 -3 97 -3 0
-605 0 -605 -97 -3 -98 -3 0 81 c0 44 -3 80 -6 80 -4 0 -33 -24 -65 -54 -257
-238 -670 -169 -852 142 -121 206 -127 475 -16 699 50 99 154 202 253 249 42
20 97 39 122 42 24 2 47 9 50 13 3 5 -226 9 -521 9 -295 0 -524 -4 -521 -9 3
-4 26 -11 51 -14 114 -12 249 -119 306 -242 54 -114 59 -168 59 -601 l0 -394
-100 0 -100 0 0 378 c0 288 -3 389 -14 429 -31 117 -91 193 -184 235 -70 32
-228 31 -294 -1 -62 -30 -132 -93 -163 -145 -70 -120 -85 -224 -85 -599 l0
-298 -97 3 -98 3 0 605 0 605 98 3 97 3 0 -71 c0 -38 4 -70 9 -70 6 0 25 14
43 31 65 61 213 129 278 129 16 0 32 5 35 10 4 7 -95 10 -289 10 l-296 0 0
-1050z m2920 859 c75 -169 101 -226 146 -329 113 -261 144 -325 158 -328 9 -2
16 2 16 8 0 6 18 51 40 98 21 48 100 224 174 392 l135 305 110 3 c61 1 111 0
111 -4 0 -6 -67 -154 -278 -614 -142 -309 -166 -362 -242 -529 -31 -69 -61
-126 -66 -128 -8 -3 -49 79 -167 337 -19 41 -72 156 -117 255 -45 99 -113 247
-151 328 -38 81 -69 150 -69 152 0 2 -18 41 -39 85 -65 132 -71 121 61 118
l113 -3 65 -146z m2127 -391 c-3 -7 -5 -2 -5 12 0 14 2 19 5 13 2 -7 2 -19 0
-25z m-170 -95 c-3 -10 -5 -2 -5 17 0 19 2 27 5 18 2 -10 2 -26 0 -35z m170
-70 c-3 -10 -5 -4 -5 12 0 17 2 24 5 18 2 -7 2 -21 0 -30z m673 -923 c0 -55 2
-100 5 -100 2 0 20 7 39 17 66 31 126 -19 126 -107 0 -78 -79 -125 -139 -84
-22 16 -24 16 -33 0 -22 -38 -28 4 -28 185 0 161 2 189 15 189 12 0 15 -18 15
-100z m600 -47 c0 -107 11 -168 32 -190 8 -7 30 -16 49 -19 29 -5 41 -1 65 19
29 25 29 27 34 154 4 102 8 128 19 128 20 0 16 -236 -4 -275 -41 -78 -167 -80
-205 -3 -14 29 -27 240 -16 268 3 8 10 15 16 15 6 0 10 -37 10 -97z m557 81
c8 -21 -13 -42 -28 -27 -13 13 -5 43 11 43 6 0 13 -7 17 -16z m-136 -123 c21
-17 24 -29 28 -105 3 -74 1 -86 -13 -86 -13 0 -16 12 -16 68 0 101 -40 142
-90 92 -16 -16 -20 -33 -20 -90 0 -56 -3 -70 -15 -70 -12 0 -15 18 -15 101 l0
101 28 -6 c15 -3 34 -2 42 4 23 15 45 12 71 -9z m531 2 c23 -14 32 -15 35 -5
3 6 11 12 19 12 11 0 14 -20 14 -99 l0 -100 -32 0 c-18 0 -51 -3 -74 -6 -37
-6 -43 -4 -67 25 -21 24 -27 42 -27 76 0 55 12 79 48 98 35 20 48 19 84 -1z
m-1290 -55 c17 -32 35 -58 42 -58 6 0 25 27 40 60 16 33 35 60 42 60 8 0 14
-3 14 -7 1 -18 -156 -313 -169 -318 -26 -10 -23 4 15 79 43 83 44 71 -18 179
-32 55 -35 70 -12 65 9 -2 30 -29 46 -60z m893 -44 c0 -81 -3 -99 -15 -99 -12
0 -16 18 -18 89 -3 97 1 120 21 113 8 -2 12 -32 12 -103z m103 46 c15 -32 32
-58 37 -57 6 2 23 28 38 60 15 31 34 57 42 57 8 0 15 -3 15 -7 0 -16 -84 -183
-92 -183 -11 0 -98 176 -91 184 15 14 26 3 51 -54z"/>
<path d="M5746 309 c-54 -42 -24 -139 44 -139 65 0 94 87 45 135 -30 30 -54
31 -89 4z"/>
<path d="M7197 310 c-21 -17 -27 -30 -27 -61 0 -72 71 -106 118 -56 63 67 -20
173 -91 117z"/>
<path d="M1810 1901 c-187 -41 -321 -222 -321 -436 0 -202 88 -363 240 -438
61 -30 72 -32 166 -31 79 0 112 5 156 22 105 41 185 134 230 263 28 82 31 246
6 327 -55 179 -189 287 -365 297 -42 2 -93 1 -112 -4z"/>
<path d="M5744 1900 c-99 -21 -206 -103 -260 -199 -31 -55 -64 -178 -64 -237
0 -69 28 -184 61 -252 38 -78 111 -152 186 -188 52 -26 68 -29 163 -29 94 0
111 3 163 27 117 55 178 126 223 259 32 96 34 246 3 339 -40 123 -119 211
-234 260 -53 23 -180 33 -241 20z"/>
</g>
</svg>
